HIERARCHY
ROOT hip
{
  OFFSET 0 0 0
  CHANNELS 6 Xposition Yposition Zposition Zrotation Yrotation Xrotation
  JOINT abdomen
  {
    OFFSET 0 20.6881 -0.73152
    CHANNELS 3 Zrotation Xrotation Yrotation
    JOINT chest
    {
      OFFSET 0 11.7043 -0.48768
      CHANNELS 3 Zrotation Xrotation Yrotation
      JOINT neck
      {
        OFFSET 0 22.1894 -2.19456
        CHANNELS 3 Zrotation Xrotation Yrotation
        JOINT head
        {
          OFFSET -0.24384 7.07133 1.2192
          CHANNELS 3 Zrotation Xrotation Yrotation
          JOINT leftEye
          {
            OFFSET 4.14528 8.04674 8.04672
            CHANNELS 3 Zrotation Xrotation Yrotation
            End Site
            {
              OFFSET 1 0 0
            }
          }
          JOINT rightEye
          {
            OFFSET -3.6576 8.04674 8.04672
            CHANNELS 3 Zrotation Xrotation Yrotation
            End Site
            {
              OFFSET 1 0 0
            }
          }
        }
      }
      JOINT rCollar
      {
        OFFSET -2.68224 19.2634 -4.8768
        CHANNELS 3 Zrotation Xrotation Yrotation
        JOINT rShldr
        {
          OFFSET -8.77824 -1.95073 1.46304
          CHANNELS 3 Zrotation Xrotation Yrotation
          JOINT rForeArm
          {
            OFFSET -28.1742 -1.7115 0.48768
            CHANNELS 3 Zrotation Xrotation Yrotation
            JOINT rHand
            {
              OFFSET -22.5879 0.773209 7.07136
              CHANNELS 3 Zrotation Xrotation Yrotation
              JOINT rThumb1
              {
                OFFSET -1.2192 -0.487915 3.41376
                CHANNELS 3 Zrotation Xrotation Yrotation
                JOINT rThumb2
                {
                  OFFSET -3.37035 -0.52449 3.41376
                  CHANNELS 3 Zrotation Xrotation Yrotation
                  End Site
                  {
                    OFFSET -1.78271 -1.18214 1.43049
                  }
                }
              }
              JOINT rIndex1
              {
                OFFSET -7.75947 0.938293 5.60832
                CHANNELS 3 Zrotation Xrotation Yrotation
                JOINT rIndex2
                {
                  OFFSET -2.54057 -0.884171 1.56538
                  CHANNELS 3 Zrotation Xrotation Yrotation
                  End Site
                  {
                    OFFSET -1.62519 -0.234802 1.16502
                  }
                }
              }
              JOINT rMid1
              {
                OFFSET -8.24714 1.18213 3.41376
                CHANNELS 3 Zrotation Xrotation Yrotation
                JOINT rMid2
                {
                  OFFSET -3.10165 -0.590103 1.0647
                  CHANNELS 3 Zrotation Xrotation Yrotation
                  End Site
                  {
                    OFFSET -2.48547 -0.328903 0.83742
                  }
                }
              }
              JOINT rRing1
              {
                OFFSET -8.82822 0.546677 1.51678
                CHANNELS 3 Zrotation Xrotation Yrotation
                JOINT rRing2
                {
                  OFFSET -2.60934 -0.819778 -0.0198488
                  CHANNELS 3 Zrotation Xrotation Yrotation
                  End Site
                  {
                    OFFSET -2.33842 -0.294052 0.168128
                  }
                }
              }
              JOINT rPinky1
              {
                OFFSET -8.27202 -0.0477905 -0.4584
                CHANNELS 3 Zrotation Xrotation Yrotation
                JOINT rPinky2
                {
                  OFFSET -1.82734 -0.647385 -0.700984
                  CHANNELS 3 Zrotation Xrotation Yrotation
                  End Site
                  {
                    OFFSET -1.69225 -0.51767 -0.607171
                  }
                }
              }
            }
          }
        }
      }
      JOINT lCollar
      {
        OFFSET 2.68224 19.2634 -4.8768
        CHANNELS 3 Zrotation Xrotation Yrotation
        JOINT lShldr
        {
          OFFSET 8.77824 -1.95073 1.46304
          CHANNELS 3 Zrotation Xrotation Yrotation
          JOINT lForeArm
          {
            OFFSET 28.1742 -1.7115 0.48768
            CHANNELS 3 Zrotation Xrotation Yrotation
            JOINT lHand
            {
              OFFSET 22.5879 0.773209 7.07136
              CHANNELS 3 Zrotation Xrotation Yrotation
              JOINT lThumb1
              {
                OFFSET 1.2192 -0.487915 3.41376
                CHANNELS 3 Zrotation Xrotation Yrotation
                JOINT lThumb2
                {
                  OFFSET 3.37035 -0.52449 3.41376
                  CHANNELS 3 Zrotation Xrotation Yrotation
                  End Site
                  {
                    OFFSET 1.78271 -1.18214 1.43049
                  }
                }
              }
              JOINT lIndex1
              {
                OFFSET 7.75947 0.938293 5.60832
                CHANNELS 3 Zrotation Xrotation Yrotation
                JOINT lIndex2
                {
                  OFFSET 2.54057 -0.884171 1.56538
                  CHANNELS 3 Zrotation Xrotation Yrotation
                  End Site
                  {
                    OFFSET 1.62519 -0.234802 1.16502
                  }
                }
              }
              JOINT lMid1
              {
                OFFSET 8.24714 1.18213 3.41376
                CHANNELS 3 Zrotation Xrotation Yrotation
                JOINT lMid2
                {
                  OFFSET 3.10165 -0.590103 1.0647
                  CHANNELS 3 Zrotation Xrotation Yrotation
                  End Site
                  {
                    OFFSET 2.48547 -0.328903 0.83742
                  }
                }
              }
              JOINT lRing1
              {
                OFFSET 8.82822 0.546677 1.51678
                CHANNELS 3 Zrotation Xrotation Yrotation
                JOINT lRing2
                {
                  OFFSET 2.60934 -0.819778 -0.0198488
                  CHANNELS 3 Zrotation Xrotation Yrotation
                  End Site
                  {
                    OFFSET 2.33842 -0.294052 0.168128
                  }
                }
              }
              JOINT lPinky1
              {
                OFFSET 8.27202 -0.0477905 -0.4584
                CHANNELS 3 Zrotation Xrotation Yrotation
                JOINT lPinky2
                {
                  OFFSET 1.82734 -0.647385 -0.700984
                  CHANNELS 3 Zrotation Xrotation Yrotation
                  End Site
                  {
                    OFFSET 1.69225 -0.51767 -0.607171
                  }
                }
              }
            }
          }
        }
      }
    }
  }
  JOINT rButtock
  {
    OFFSET -8.77824 4.35084 1.2192
    CHANNELS 3 Zrotation Xrotation Yrotation
    JOINT rThigh
    {
      OFFSET 0 -1.70687 -2.19456
      CHANNELS 3 Zrotation Xrotation Yrotation
      JOINT rShin
      {
        OFFSET 0 -36.8199 0.73152
        CHANNELS 3 Zrotation Xrotation Yrotation
        JOINT rFoot
        {
          OFFSET 0.73152 -45.1104 -5.12064
          CHANNELS 3 Zrotation Xrotation Yrotation
          End Site
          {
            OFFSET -1.1221 -3.69964 12.103
          }
        }
      }
    }
  }
  JOINT lButtock
  {
    OFFSET 8.77824 4.35084 1.2192
    CHANNELS 3 Zrotation Xrotation Yrotation
    JOINT lThigh
    {
      OFFSET 0 -1.70687 -2.19456
      CHANNELS 3 Zrotation Xrotation Yrotation
      JOINT lShin
      {
        OFFSET 0 -36.8199 0.73152
        CHANNELS 3 Zrotation Xrotation Yrotation
        JOINT lFoot
        {
          OFFSET -0.73152 -45.1104 -5.12064
          CHANNELS 3 Zrotation Xrotation Yrotation
          End Site
          {
            OFFSET 1.1221 -3.69964 12.103
          }
        }
      }
    }
  }
}
MOTION
Frames:	4
Frame Time:	0.03333
-20.111490227282047 62.225961685180664 -185.60587037354708 5.383012103765035 20.02337403307292 3.4628706910335567 -14.828011131470229 11.725742625545022 -1.1785689915229756 5.956184930326402 -8.329521560762686 -0.7080852843683988 -6.593122695431717 16.27791173564949 -9.688810314091617 9.066443476920055 -23.228197829385866 -15.995922253123634 -0.019923475045942076 0.028775480251557937 -0.05956729371108446 0.11337217559892603 0.11942777862837702 -0.29021724579392766 0.14138555614949863 0.020782744860041415 0.1819693662589508 59.93060694768478 29.85428899416759 -1.948375493769606 -19.88606503264086 -13.712318513568864 40.15038935661161 -0.02785281774422442 9.210890025034777 1.6670602789808793 0.36116738326216896 0.31926065088784994 -0.1039228490060514 0.08191782044969503 0.16675386590270447 0.2724657975844761 0.02183430050753248 -0.4338577782257354 0.1026580100295561 7.952770033692074 5.5210476655700536 0.36985890570271596 0.21436463332720393 -0.05729936408173611 0.1374165492310601 3.0926925807088486 1.039961828261791 -0.07874070192836807 -0.049618389473233646 0.30303788439201185 0.29280145853857253 10.58803545417506 0.7463271933661828 0.0823685062132101 0.17506511222512572 0.10222071784011662 0.1206527303673365 2.258381131610383 -0.8198468159836712 -0.026460846535716977 0.0021472407203227584 0.15335183413194942 -0.029737576429177702 -68.5607763602385 34.31742488089365 -8.84870558391651 16.03686240700869 -9.62802248425215 -30.779759136136807 0.8340688173003715 5.551606358803514 0.6516028215835667 -0.06810653761769457 0.23246687578355915 -0.19994039437804773 0.25116334469770546 -0.18023217701266683 0.02838455864328049 -0.12750180927927257 0.08028591216616446 -0.10335837122374686 -7.555748212712158 5.481478245274054 -0.6041517898721956 -0.16415617954270467 -0.03697763031024411 -0.02040895208554189 -2.6089651367536173 0.7814815366940038 -0.29368476741689914 -0.024505384720683483 0.3074836972114554 0.302693786932146 -10.238098396012273 0.6373705749831113 -0.07405056310375105 -0.24987932249459593 -0.2983982115940162 0.03404112921481464 -2.1238870228900155 -0.9408498069893824 0.3813024607702492 0.037595335543307136 0.12892270207004677 0.012358987179300064 -47.847961324797204 -56.83255608357206 -41.50777675603034 -1.0279475255117387 68.08138587296281 1.5353548084325812 2.7071851780091047 -1.4522254298180024 16.85010571072543 -0.18213318407732532 0.11609783462437101 -0.1500657660892328 8.986542216461952 7.5677129965907275 5.025025667665387 -1.2510080568694266 37.22774799566857 -1.1105775532649662 14.283785927271845 -20.68506739193812 32.39760213917563
-19.925918243825436 62.1901273727417 -185.6678456068039 5.334564718208488 20.005490890278534 3.3272222803434572 -14.815720206058792 11.833729623870218 -1.2666235768593683 5.94945719399394 -8.368409242802153 -0.7275783240944979 -6.566228825574792 16.27088688608813 -9.644616428840695 9.022027610521107 -23.31766476977657 -15.918766728711878 -0.014566045415713326 0.04109778184449563 -0.03616130264250858 0.14094991814649876 0.11956374208154258 -0.28767993723897367 0.14270581037172095 0.02592395631435695 0.18938759202781935 60.093875789604766 29.96183715283861 -1.9478141375971956 -19.798650564095745 -13.559098587465261 39.86540312858741 -0.03985836931440277 9.288959087248022 1.69313409925058 0.3330385298259408 0.3209624885690938 -0.09546152528487498 0.07338782131084826 0.16997952945994876 0.27400611196401975 0.02708276727615837 -0.433528861928517 0.09037652948907982 7.93396396158609 5.525624746087608 0.37025761799551543 0.2175219949927481 -0.054277432260828595 0.14266586977333223 3.0771052352492334 1.0268666480755841 -0.07229284326931737 -0.04160977922798213 0.30677207687730473 0.28379425329232405 10.579624929985835 0.7258093050994645 0.07865651184271973 0.1900724252138189 0.09597226868831854 0.113797995204994 2.2478511143443387 -0.8126466226597141 -0.03945069239831763 0.0036339808035641278 0.13758087397753707 -0.042445036658280644 -68.69200478476196 34.23700623360592 -8.82035773754002 15.909434982758349 -9.385251094166863 -30.31347919697296 0.8273135467678173 5.889845010465361 0.5434817807959111 -0.04482178240688641 0.25008470841737235 -0.20663718141583365 0.2346239882616667 -0.18173503207348118 0.010633003712123132 -0.13526485287952095 0.07740506644030001 -0.11365466795412953 -7.573653553621346 5.490061658626644 -0.5827464039001988 -0.15698079901534182 -0.021831685825740833 -0.0125802746362379 -2.6115949730274837 0.7794783702764859 -0.29538889961481735 -0.0220493447446821 0.28945946832202646 0.3129414185646923 -10.22197061183458 0.6506921119072807 -0.06654002305938156 -0.2578098124512154 -0.28667568598757026 0.03779783998002744 -2.124068449789844 -0.936516692291244 0.3733409147972473 0.05930327755119438 0.1294920623703908 0.021305681218370516 -47.98399137230718 -56.79356594869504 -41.5422248151093 -1.088238245645676 67.97753284663277 1.566965137354812 2.689716115433151 -1.415790852907627 16.874197495475357 -0.16296383128486142 0.12410286969247886 -0.143111566297102 9.009412251124095 7.491491500547971 5.118472473908094 -1.1936323334072039 37.383302138921024 -1.105095365960679 14.170188782317132 -20.69070229800338 32.31825583158759
-19.749409146606922 62.15372085571289 -185.73828004300594 5.288644502644845 19.99589105940008 3.195698450138399 -14.80224082773177 11.944594693156924 -1.3509512267864614 5.941231938685952 -8.408437566433012 -0.7467188620264007 -6.539045526451788 16.256857677532924 -9.592803467570624 8.97123234743737 -23.402594757011094 -15.827733967453948 -0.008614175884281901 0.05182704853523363 -0.013628295127224953 0.16755563939781407 0.11913023851265833 -0.2850164836277861 0.14332639709084008 0.031543494453984945 0.19771679427723832 60.26260878286076 30.04785655524575 -1.9518776732665302 -19.71659267140721 -13.40989139749904 39.590634863561554 -0.049550407746650864 9.365120819135543 1.7146786503269158 0.30568223481786455 0.322185626039055 -0.08936750244134266 0.06372150280969349 0.17354189999893355 0.27634043583457735 0.03281222877274126 -0.43107298203507427 0.07682682155794968 7.915057997963495 5.530393925675569 0.3695602983699394 0.22085715502012418 -0.052359216321112824 0.14780025103847777 3.0614681574747236 1.0141629231061835 -0.06481778819212021 -0.034386640737282086 0.3096487604566437 0.2738595297011289 10.570675674625827 0.7072732389091078 0.07550331232370103 0.20426395748351867 0.08814818027236315 0.10510145684427527 2.2378764768351815 -0.805526577336799 -0.05204716205340787 0.004655094084481034 0.12347882785813505 -0.05520575101856853 -68.79307109391064 34.17311664410962 -8.837901078423197 15.78760489853283 -9.152228945348122 -29.86403225901861 0.8211484472682347 6.2208078031138525 0.43717052669489737 -0.023423226624059587 0.26728184408699507 -0.21207918799789421 0.2189096439721714 -0.1832716111933225 -0.00839280838606473 -0.14552518439505527 0.07498227027564955 -0.12125922982129246 -7.59126178130164 5.499401942316637 -0.5610445450295412 -0.15244037740372293 -0.008444515052515842 -0.005201109011685374 -2.616146867222474 0.7777757321824487 -0.2942809148653943 -0.021231589674131746 0.26935459305668236 0.31878379162599196 -10.205600355941353 0.6638825945767506 -0.05863205138268196 -0.26400394025477075 -0.27695147096102907 0.04114207135239493 -2.122824715030667 -0.9318702426649312 0.3649570710344682 0.07860912740535277 0.13109672993852067 0.028163938197003788 -48.130106194126675 -56.75632775734013 -41.57847604412914 -1.1398563330809894 67.87275774476478 1.5991144108912387 2.664680483917292 -1.3708223815161442 16.87645145790146 -0.1423816431904098 0.13255565567719277 -0.13550124145782685 9.030977719654762 7.412908466599681 5.20652898023519 -1.1312645954353482 37.54255482960904 -1.1066239409525866 14.05864325543436 -20.696723109756746 32.24761460009674
-19.58195772022009 62.11673021316528 -185.8107339590788 5.246194876953217 19.99479822913288 3.0680635588920175 -14.78822869464949 12.056853121034315 -1.4302644506457074 5.930912803510532 -8.449747404306896 -0.7653037000362997 -6.511644515048989 16.235479185430783 -9.533255317065514 8.914054272574253 -23.483561526979717 -15.723266224098603 -0.0018362803501020609 0.060713871697360686 0.008030021287473916 0.19269543129851535 0.11807390706883356 -0.2820644545241654 0.14315564236158976 0.0376878899426461 0.20679817110900497 60.43386894610966 30.11060550315066 -1.9570771547722023 -19.640118458365162 -13.264859160662988 39.326774410640205 -0.056957747901529694 9.441115211388396 1.7315983095615066 0.2794801350578147 0.3230902792585379 -0.08601174512475077 0.053035084883826744 0.17728601760286414 0.2793531895887877 0.03875342613359453 -0.4267869316091855 0.06201326182610272 7.896239973026463 5.535405576979066 0.36774410838095073 0.22422763993211392 -0.05150997834735694 0.1527297266285229 3.046195641047164 1.001850866797001 -0.05690629469912981 -0.02797223933299386 0.31139280657252416 0.26313602598250313 10.56152749000624 0.6912267766712206 0.07288062640412192 0.2175610551370641 0.07882038302194715 0.09479875681154573 2.2286352308881545 -0.7986001251881714 -0.06421930620631106 0.005453639247990728 0.11114553392950187 -0.06793060688571385 -68.8628004951473 34.12833109372184 -8.901324507508642 15.671841729837578 -8.929705651057338 -29.433720096024054 0.8149786520135974 6.541144528961097 0.3333177138082651 -0.004317693411652983 0.28428357231333196 -0.2164124094177384 0.20423962493460052 -0.1849583477531983 -0.028040808028958444 -0.15784417761511374 0.07300599772798867 -0.12627514999302059 -7.608728282556655 5.509339440672182 -0.5391593382683509 -0.15023534687971954 0.0031046945037410305 0.001812428048859907 -2.6227975504833623 0.7763951801964599 -0.29090029139135537 -0.021954148983125046 0.24760534974865772 0.3205078807828913 -10.1892130245752 0.6767238838249034 -0.050826639265238324 -0.2684414287811634 -0.2691715653312672 0.043661450660777604 -2.1201743881892905 -0.9266775913484291 0.3562344925775388 0.09537393344485484 0.13396199429534103 0.03284731353351691 -48.287388375239146 -56.721592830316034 -41.6189585753398 -1.1835750932977718 67.76988143548604 1.6318862988591947 2.6327058070915235 -1.3173565144669306 16.858935437774964 -0.12049013984857845 0.1408086052678309 -0.12783670199201475 9.051486216411373 7.333336762769033 5.28783256390726 -1.0644098500656172 37.70290035056426 -1.1155143926527102 13.948431322987036 -20.70253560074043 32.18486223709724
